<svg xmlns="http://www.w3.org/2000/svg" xmlns:xlink="http://www.w3.org/1999/xlink" width="1920" height="1080" viewBox="0 0 1920 1080">
  <defs>
    <clipPath id="clip-Web_1920_1">
      <rect width="1920" height="1080"/>
    </clipPath>
  </defs>
  <g id="Web_1920_1" data-name="Web 1920 – 1" clip-path="url(#clip-Web_1920_1)">
    <rect width="1920" height="1080" fill="#e4e4e4"/>
    <rect id="Rectangle_12" data-name="Rectangle 12" width="397" height="416" transform="matrix(0.719, -0.695, 0.695, 0.719, 534.561, 124.311)" fill="#fff" opacity="0.53"/>
    <ellipse id="Ellipse_7" data-name="Ellipse 7" cx="184.5" cy="186" rx="184.5" ry="186" transform="translate(1638 -99)" fill="#fff" opacity="0.65"/>
    <ellipse id="Ellipse_8" data-name="Ellipse 8" cx="337.5" cy="319" rx="337.5" ry="319" transform="translate(1109 273)" fill="#fff" opacity="0.65"/>
    <ellipse id="Ellipse_9" data-name="Ellipse 9" cx="213" cy="197" rx="213" ry="197" transform="translate(960 376)" fill="#fff" opacity="0.65"/>
    <ellipse id="Ellipse_10" data-name="Ellipse 10" cx="63.5" cy="65.5" rx="63.5" ry="65.5" transform="translate(783 843)" fill="#fff" opacity="0.65"/>
    <rect id="Rectangle_13" data-name="Rectangle 13" width="326" height="341" transform="matrix(0.695, -0.719, 0.719, 0.695, 96.373, 774.781)" fill="#fff" opacity="0.65"/>
    <path id="Path_2" data-name="Path 2" d="M3118.073,0c167.5,733.76,195.418,146.752,125.626,817.618s-537.4,293.5-537.4,293.5" transform="translate(-2889.404 -794.042)" fill="#fff" opacity="0.35"/>
    <ellipse id="Ellipse_11" data-name="Ellipse 11" cx="235.5" cy="218.5" rx="235.5" ry="218.5" transform="translate(910 945)" fill="#fff" opacity="0.65"/>
  </g>
</svg>
