<svg xmlns="http://www.w3.org/2000/svg" width="88" height="82" viewBox="0 0 88 82">
  <defs>
    <style>.a{fill:#09202d;}.b{fill:#fcf7f7;}</style>
  </defs>
  <g transform="translate(-759.308 -673.443)">
    <ellipse class="a" cx="44" cy="41" rx="44" ry="41" transform="translate(759.308 673.443)"/>
    <g transform="translate(770.342 682.443)">
      <path class="b" d="M61.549,21.388a32.45,32.45,0,0,0-12-11.708A32.894,32.894,0,0,0,32.986,5.365,32.9,32.9,0,0,0,16.429,9.68a32.446,32.446,0,0,0-12,11.708A30.876,30.876,0,0,0,0,37.536,30.751,30.751,0,0,0,6.292,56.45,32.269,32.269,0,0,0,22.549,68.074a1.961,1.961,0,0,0,1.718-.293,1.62,1.62,0,0,0,.558-1.256q0-.126-.022-2.262t-.022-3.728l-.988.167a12.916,12.916,0,0,1-2.384.147,18.607,18.607,0,0,1-2.985-.293A6.753,6.753,0,0,1,15.547,59.3a5.322,5.322,0,0,1-1.889-2.576l-.429-.964a10.425,10.425,0,0,0-1.353-2.136,5.149,5.149,0,0,0-1.868-1.592l-.3-.21a3.125,3.125,0,0,1-.558-.5,2.292,2.292,0,0,1-.386-.586q-.129-.294.215-.483a2.849,2.849,0,0,1,1.246-.187l.859.125a6.341,6.341,0,0,1,2.126,1.005,6.832,6.832,0,0,1,2.083,2.178,7.45,7.45,0,0,0,2.384,2.619,5.144,5.144,0,0,0,2.813.9,12.514,12.514,0,0,0,2.448-.209,8.693,8.693,0,0,0,1.933-.629,6.723,6.723,0,0,1,2.1-4.315,30.085,30.085,0,0,1-4.4-.754,17.779,17.779,0,0,1-4.037-1.634,11.5,11.5,0,0,1-3.458-2.806,13.364,13.364,0,0,1-2.255-4.4,20.436,20.436,0,0,1-.88-6.284,12.052,12.052,0,0,1,3.393-8.63,11.005,11.005,0,0,1,.3-8.545,6.155,6.155,0,0,1,3.694.565,26.132,26.132,0,0,1,3.586,1.613q1.139.669,1.826,1.131a31.777,31.777,0,0,1,16.494,0l1.632-1a23.374,23.374,0,0,1,3.951-1.844,5.759,5.759,0,0,1,3.48-.46,10.9,10.9,0,0,1,.343,8.545,12.054,12.054,0,0,1,3.394,8.63,20.664,20.664,0,0,1-.881,6.3,12.849,12.849,0,0,1-2.275,4.4,11.948,11.948,0,0,1-3.48,2.786,17.813,17.813,0,0,1-4.038,1.634,30.054,30.054,0,0,1-4.4.755q2.233,1.884,2.233,5.948v8.838a1.649,1.649,0,0,0,.537,1.256,1.9,1.9,0,0,0,1.7.293A32.265,32.265,0,0,0,59.682,56.448a30.757,30.757,0,0,0,6.292-18.913A30.9,30.9,0,0,0,61.549,21.388Z" transform="translate(0 -5.365)"/>
    </g>
  </g>
</svg>