<svg xmlns="http://www.w3.org/2000/svg" width="88" height="82" viewBox="0 0 88 82">
  <defs>
    <style>.a{fill:#206790;}.b{fill:#fef6f6;}</style>
  </defs>
  <g transform="translate(-525 -672.443)">
    <ellipse class="a" cx="44" cy="41" rx="44" ry="41" transform="translate(525 672.443)"/>
    <g transform="translate(546 691.477)">
      <path class="b" d="M45.938,35.773V52.317H36.092V36.881c0-3.877-1.424-6.524-4.988-6.524a5.375,5.375,0,0,0-5.052,3.508,6.405,6.405,0,0,0-.327,2.338V52.317H15.876s.133-26.142,0-28.851h9.848v4.09c-.02.031-.046.064-.065.093h.065v-.093A9.822,9.822,0,0,1,34.6,22.788C41.08,22.788,45.938,26.911,45.938,35.773ZM5.573,9.558C2.2,9.558,0,11.711,0,14.542c0,2.769,2.14,4.987,5.443,4.987h.066c3.435,0,5.571-2.218,5.571-4.987C11.014,11.711,8.943,9.558,5.573,9.558ZM.585,52.317h9.846V23.466H.585Z" transform="translate(0 -9.558)"/>
    </g>
  </g>
</svg>